<svg width="48" height="24" viewBox="0 0 48 24" fill="none" xmlns="http://www.w3.org/2000/svg">
<path d="M44 0H4C1.8 0 0 1.8 0 4V20C0 22.2 1.8 24 4 24H44C46.2 24 48 22.2 48 20V4C48 1.8 46.2 0 44 0Z" fill="#FFC107"/>
<path d="M28.1001 5H24.4001V18.1H28.1001C30.1001 18.1 30.9001 17.7 31.4001 17.4C32.0001 17 32.3001 16.3 32.3001 15.6V7.7C32.3001 6.8 31.9001 6 31.4001 5.7C30.6001 5.2 30.3001 5 28.1001 5ZM28.8001 15.3C28.8001 15.9 28.1001 15.9 27.5001 15.9V7C28.1001 7 28.8001 7 28.8001 7.6V15.3Z" fill="#263238"/>
<path d="M33.8 5V18.3H36.6C36.6 18.3 36.8 17.4 37 17.6C37.4 17.6 38.5001 18.2 39.2001 18.2C39.9001 18.2 40.3001 18.2 40.7001 18C41.3001 17.6 41.4001 17.3 41.4001 16.7V8.9C41.4001 7.8 40.3001 7.1 39.4001 7.1C38.5001 7.1 37.6001 7.7 37.2001 8V5H33.8ZM37.4001 9.2C37.4001 8.8 37.4 8.6 37.8 8.6C38 8.6 38.2001 8.8 38.2001 9.2V15.8C38.2001 16.2 38.2 16.4 37.8 16.4C37.6 16.4 37.4001 16.2 37.4001 15.8V9.2Z" fill="#263238"/>
<path d="M22.7001 18.3V5H18.3001L17.5001 11.3L16.4001 5H12.4001V18.3H15.3001V10.9L16.6001 18.3H18.6001L19.9001 10.9V18.3H22.7001Z" fill="#263238"/>
<path d="M10.7001 5H7.6001V18.3H10.7001V5Z" fill="#263238"/>
</svg>
