<svg width="24" height="24" viewBox="0 0 24 24" fill="none" xmlns="http://www.w3.org/2000/svg">
<path d="M23.2732 16.1031C21.0072 22.3291 14.1229 25.5393 7.89686 23.2732C1.67086 21.0072 -1.53934 14.123 0.726757 7.89696C2.99276 1.67086 9.87696 -1.53934 16.103 0.726756C22.329 2.99276 25.5393 9.87706 23.2732 16.1031ZM13.4092 12.5129C13.6924 11.7346 13.2912 10.8741 12.5129 10.5909C11.7346 10.3076 10.8741 10.7089 10.5909 11.4871C10.3076 12.2654 10.7089 13.1259 11.4871 13.4091C12.2654 13.6924 13.126 13.2911 13.4092 12.5129ZM9.05216 15.7146C9.61866 14.1581 8.81616 12.437 7.25956 11.8705C5.70306 11.304 3.98206 12.1065 3.41556 13.663C2.84896 15.2195 3.65156 16.9406 5.20806 17.5071C6.76456 18.0736 8.48566 17.2711 9.05216 15.7146ZM12.1295 7.25956C12.696 5.70306 11.8935 3.98206 10.337 3.41556C8.78046 2.84896 7.05936 3.65156 6.49286 5.20806C5.92636 6.76456 6.72886 8.48556 8.28536 9.05206C9.84186 9.61866 11.563 8.81606 12.1295 7.25956ZM20.5845 10.337C21.151 8.78046 20.3485 7.05936 18.7919 6.49286C17.2354 5.92636 15.5144 6.72886 14.9479 8.28536C14.3813 9.84186 15.1839 11.563 16.7404 12.1295C18.2969 12.696 20.018 11.8935 20.5845 10.337ZM17.5071 18.792C18.0736 17.2354 17.2711 15.5143 15.7146 14.9478C14.1581 14.3813 12.437 15.1838 11.8705 16.7404C11.304 18.2969 12.1065 20.0179 13.663 20.5844C15.2195 21.151 16.9406 20.3485 17.5071 18.792Z" fill="#FF8A00"/>
</svg>
