<?xml version="1.0" encoding="iso-8859-1"?>
<!-- Uploaded to: SVG Repo, www.svgrepo.com, Generator: SVG Repo Mixer Tools -->
<svg height="800px" width="800px" version="1.1" id="Layer_1" xmlns="http://www.w3.org/2000/svg" xmlns:xlink="http://www.w3.org/1999/xlink" 
	 viewBox="0 0 512 512" xml:space="preserve">
<path style="fill:#56545A;" d="M113.68,324.523l-98.396,98.396c-20.379,20.379-20.379,53.419,0,73.797
	c20.379,20.379,53.42,20.379,73.797,0l98.398-98.396L113.68,324.523z"/>
<path style="fill:#424144;" d="M150.58,361.421L15.284,496.716c20.379,20.379,53.42,20.379,73.797,0l98.398-98.396L150.58,361.421z"
	/>
<circle style="fill:#88888F;" cx="285.875" cy="226.125" r="226.125"/>
<path style="fill:#56545A;" d="M445.77,66.23L125.98,386.02c88.307,88.307,231.483,88.307,319.79,0S534.077,154.538,445.77,66.23z"
	/>
<circle style="fill:#B4D8F1;" cx="285.875" cy="226.125" r="139.154"/>
<path style="fill:#7AB9E8;" d="M384.272,127.728L187.479,324.523c54.343,54.343,142.45,54.343,196.793,0
	S438.615,182.071,384.272,127.728z"/>
</svg>